<?xml version="1.0" encoding="utf-8"?>
<!-- Generator: Adobe Illustrator 23.0.3, SVG Export Plug-In . SVG Version: 6.00 Build 0)  -->
<svg version="1.1" id="Layer_1" xmlns="http://www.w3.org/2000/svg" xmlns:xlink="http://www.w3.org/1999/xlink" x="0px" y="0px"
	 viewBox="0 0 366 76.3" style="enable-background:new 0 0 366 76.3;" xml:space="preserve">
<style type="text/css">
	.st0{fill:#F05443;}
	.st1{fill:#B41F5E;}
	.st2{fill:#D91A5F;}
	.st3{fill:#FEBE10;}
	.st4{fill:#F47A37;}
	.st5{fill:#2D2E2D;}
</style>
<g>
	<g>
		<polyline class="st0" points="99.2,71.4 58.3,71.4 84.3,36.4 99.2,71.4 		"/>
	</g>
	<g>
		<path class="st1" d="M136.1,71.4H100c12.3,0,20-13.3,13.9-23.9l-16-28.1l4.3-7.4c6.2-10.6,21.6-10.6,27.7,0.1l20.2,35.4
			C156,58.2,148.3,71.4,136.1,71.4z"/>
	</g>
	<g>
		<path class="st0" d="M97.8,19.4l-16.3,28c-1.5,2.6-2.2,5.3-2.2,8c0-2.6-0.7-5.3-2.1-7.9L61.4,19.8L66,12
			c6.2-10.6,21.6-10.6,27.7,0.1L97.8,19.4z"/>
	</g>
	<g>
		<path class="st2" d="M99.9,71.4h-4.7c-9.3,0-16-7.7-16-16l0,0c0-2.7,0.7-5.4,2.2-8l16.3-28l16,28.1
			C119.9,58.2,112.2,71.4,99.9,71.4z"/>
	</g>
	<g>
		<path class="st3" d="M59.1,71.4H22.4c-12.3,0-20-13.4-13.8-24L29.2,12c6.2-10.6,21.6-10.6,27.7,0.1l4.4,7.7l-16,27.5
			C39.1,58.1,46.8,71.4,59.1,71.4z"/>
	</g>
	<g>
		<path class="st4" d="M79.3,55.4L79.3,55.4c0,8.4-6.7,16-16,16h-4.1c-12.3,0-20-13.4-13.8-24l16-27.5l15.8,27.7
			C78.6,50.1,79.3,52.8,79.3,55.4z"/>
	</g>
</g>
<g>
	<g>
		<path class="st5" d="M203.2,16.1c1.6,1.7,2.3,4,2.3,7v12.8h-6.7v-12c0-1.4-0.4-2.5-1.1-3.3c-0.8-0.8-1.8-1.2-3.1-1.2
			c-1.3,0-2.4,0.4-3.2,1.3c-0.8,0.8-1.2,2-1.2,3.5v11.7h-6.8v-12c0-1.4-0.4-2.5-1.1-3.3s-1.8-1.2-3.1-1.2s-2.4,0.4-3.2,1.2
			s-1.2,2-1.2,3.5v11.7H168v-22h6.8v3.8c0.6-1.2,1.5-2.2,2.7-2.9s2.6-1.1,4.2-1.1c1.7,0,3.2,0.4,4.5,1.2s2.3,1.9,2.9,3.3
			c0.8-1.4,1.8-2.5,3.1-3.3c1.3-0.8,2.8-1.2,4.4-1.2C199.5,13.6,201.6,14.4,203.2,16.1z"/>
		<path class="st5" d="M224,14.7c1.2,0.8,2.1,1.8,2.7,3.1v-4h6.7v22.1h-6.7v-4c-0.6,1.3-1.5,2.4-2.7,3.1c-1.2,0.8-2.7,1.2-4.4,1.2
			c-1.8,0-3.5-0.5-4.9-1.4s-2.6-2.2-3.4-3.9s-1.3-3.7-1.3-6s0.4-4.3,1.3-6c0.8-1.7,2-3,3.4-3.9s3.1-1.4,4.9-1.4
			C221.3,13.5,222.7,13.9,224,14.7z M218.3,20.9c-0.9,0.9-1.3,2.3-1.3,4s0.4,3,1.3,4c0.9,0.9,2.1,1.4,3.5,1.4s2.6-0.5,3.5-1.5
			s1.4-2.3,1.4-3.9c0-1.7-0.5-3-1.4-3.9c-0.9-1-2.1-1.4-3.5-1.4C220.3,19.5,219.2,20,218.3,20.9z"/>
		<path class="st5" d="M249.3,14.8c1.3-0.8,2.8-1.2,4.3-1.2v7.3h-1.9c-1.8,0-3.2,0.4-4.2,1.2S246,24.2,246,26v10.1h-6.8V13.8h6.8V18
			C246.9,16.6,248,15.5,249.3,14.8z"/>
		<path class="st5" d="M279.7,13.8v22.1h-6.8v-4c-0.6,1.3-1.6,2.3-2.8,3.1c-1.3,0.8-2.7,1.2-4.4,1.2c-2.5,0-4.6-0.8-6-2.5
			c-1.5-1.7-2.2-4-2.2-7V13.8h6.7v12c0,1.5,0.4,2.7,1.2,3.5c0.8,0.8,1.8,1.3,3.1,1.3c1.4,0,2.5-0.4,3.2-1.3c0.8-0.9,1.2-2.1,1.2-3.7
			V13.8H279.7z"/>
		<path class="st5" d="M298.1,30.1v5.8H295c-2.6,0-4.6-0.6-6-1.9c-1.4-1.3-2.2-3.4-2.2-6.4v-8.1h-3v-5.7h3V8.4h6.8v5.4h4.4v5.7h-4.4
			v8.2c0,0.9,0.2,1.5,0.5,1.8c0.4,0.3,1,0.5,1.8,0.5L298.1,30.1L298.1,30.1z"/>
		<path class="st5" d="M303.5,5c0.7-0.7,1.7-1,2.9-1c1.2,0,2.2,0.3,2.9,1c0.7,0.7,1.1,1.5,1.1,2.6c0,1-0.4,1.8-1.1,2.5s-1.7,1-2.9,1
			c-1.2,0-2.2-0.3-2.9-1c-0.7-0.7-1.1-1.5-1.1-2.5S302.8,5.7,303.5,5z M309.8,13.8v22.1H303V13.8H309.8z"/>
	</g>
	<g>
		<path class="st5" d="M182.3,65.4v5.8h-3.1c-2.6,0-4.6-0.6-6-1.9s-2.2-3.4-2.2-6.4v-8.1h-3v-5.7h3v-5.4h6.8v5.4h4.4v5.7h-4.4V63
			c0,0.9,0.2,1.5,0.5,1.8c0.4,0.3,1,0.5,1.8,0.5L182.3,65.4L182.3,65.4z"/>
		<path class="st5" d="M208.1,61.3h-15.3c0.1,1.7,0.5,2.9,1.3,3.6s1.7,1.1,2.9,1.1c1,0,1.8-0.2,2.5-0.8c0.7-0.5,1.1-1.2,1.3-1.9h7.2
			c-0.3,1.6-0.9,3-1.9,4.2s-2.2,2.2-3.7,2.9c-1.5,0.7-3.2,1-5,1c-2.2,0-4.1-0.5-5.8-1.4c-1.7-0.9-3-2.2-3.9-3.9s-1.4-3.7-1.4-6
			s0.5-4.3,1.4-6s2.3-3,3.9-3.9c1.7-0.9,3.6-1.4,5.8-1.4c2.2,0,4.1,0.5,5.8,1.3c1.7,0.9,3,2.2,3.9,3.8c0.9,1.6,1.4,3.5,1.4,5.6
			C208.3,60.1,208.3,60.7,208.1,61.3z M200.3,55.2c-0.8-0.7-1.8-1.1-3-1.1s-2.3,0.4-3.1,1.1c-0.8,0.7-1.3,1.8-1.4,3.2h8.6
			C201.5,57,201.1,56,200.3,55.2z"/>
		<path class="st5" d="M230.2,51.1c1.9,1.6,3.1,3.7,3.6,6.5h-7.2c-0.2-0.9-0.6-1.7-1.3-2.2c-0.7-0.5-1.5-0.8-2.5-0.8
			c-1.2,0-2.2,0.5-2.9,1.4c-0.8,0.9-1.2,2.3-1.2,4.1c0,1.8,0.4,3.2,1.2,4.1c0.8,0.9,1.7,1.4,2.9,1.4c1,0,1.8-0.3,2.5-0.8
			s1.1-1.3,1.3-2.2h7.2c-0.5,2.8-1.7,4.9-3.6,6.5c-1.9,1.6-4.3,2.4-7.2,2.4c-2.2,0-4.1-0.5-5.8-1.4c-1.7-0.9-3-2.2-3.9-3.9
			c-0.9-1.7-1.4-3.7-1.4-6s0.5-4.3,1.4-6s2.3-3,3.9-3.9c1.7-0.9,3.6-1.4,5.8-1.4C225.9,48.8,228.3,49.6,230.2,51.1z"/>
		<path class="st5" d="M258.6,51.4c1.5,1.7,2.2,4,2.2,7v12.8H254v-12c0-1.5-0.4-2.6-1.2-3.5c-0.8-0.8-1.8-1.3-3.1-1.3
			c-1.4,0-2.5,0.4-3.3,1.3s-1.2,2.1-1.2,3.7v11.7h-6.8V41.8h6.8v11.3c0.6-1.3,1.6-2.4,2.8-3.1c1.3-0.8,2.7-1.2,4.4-1.2
			C255.1,48.8,257.2,49.7,258.6,51.4z"/>
		<path class="st5" d="M273.3,41.8v29.3h-6.8V41.8H273.3z"/>
		<path class="st5" d="M292,49.9c1.2,0.8,2.1,1.8,2.7,3.1v-4h6.7v22.1h-6.7v-4c-0.6,1.3-1.5,2.4-2.7,3.1c-1.2,0.8-2.7,1.2-4.4,1.2
			c-1.8,0-3.5-0.5-4.9-1.4c-1.4-0.9-2.6-2.2-3.4-3.9s-1.3-3.7-1.3-6s0.4-4.3,1.3-6c0.8-1.7,2-3,3.4-3.9s3.1-1.4,4.9-1.4
			C289.3,48.8,290.7,49.2,292,49.9z M286.3,56.2c-0.9,0.9-1.3,2.3-1.3,4s0.4,3,1.3,4c0.9,0.9,2.1,1.4,3.5,1.4s2.6-0.5,3.5-1.5
			c0.9-1,1.4-2.3,1.4-3.9c0-1.7-0.5-3-1.4-3.9c-0.9-1-2.1-1.4-3.5-1.4C288.3,54.7,287.2,55.2,286.3,56.2z"/>
		<path class="st5" d="M325.9,50.1c1.4,0.9,2.6,2.2,3.4,3.9c0.8,1.7,1.3,3.7,1.3,6s-0.4,4.3-1.3,6c-0.8,1.7-2,3-3.4,3.9
			c-1.4,0.9-3.1,1.4-4.9,1.4c-1.7,0-3.1-0.4-4.4-1.2c-1.3-0.8-2.1-1.8-2.7-3.1v4h-6.8V41.8h6.8V53c0.6-1.3,1.4-2.4,2.7-3.1
			c1.2-0.8,2.7-1.2,4.4-1.2C322.9,48.8,324.5,49.2,325.9,50.1z M315.4,56.2c-0.9,1-1.4,2.3-1.4,3.9s0.5,2.9,1.4,3.9
			c0.9,1,2.1,1.5,3.5,1.5c1.5,0,2.6-0.5,3.5-1.4c0.9-0.9,1.3-2.3,1.3-4s-0.4-3-1.3-4c-0.9-0.9-2.1-1.4-3.5-1.4
			C317.4,54.7,316.3,55.2,315.4,56.2z"/>
		<path class="st5" d="M350.1,50.9c1.7,1.4,2.7,3.2,3.1,5.5h-6.3c-0.2-0.9-0.6-1.6-1.3-2.1c-0.6-0.5-1.5-0.8-2.4-0.8
			c-0.8,0-1.3,0.2-1.7,0.5c-0.4,0.3-0.6,0.8-0.6,1.4c0,0.7,0.4,1.2,1.1,1.5s1.9,0.7,3.4,1c1.7,0.4,3.1,0.8,4.2,1.2
			c1.1,0.4,2,1.1,2.8,2s1.2,2.2,1.2,3.7c0,1.3-0.3,2.4-1,3.4s-1.7,1.7-3,2.3c-1.3,0.6-2.8,0.8-4.6,0.8c-3,0-5.4-0.7-7.2-2
			c-1.8-1.3-2.9-3.2-3.3-5.7h6.5c0.1,0.9,0.5,1.7,1.2,2.2s1.6,0.8,2.7,0.8c0.8,0,1.3-0.2,1.7-0.5c0.4-0.4,0.6-0.8,0.6-1.4
			c0-0.8-0.4-1.3-1.1-1.6c-0.7-0.3-1.9-0.7-3.5-1s-3-0.7-4-1.1c-1.1-0.4-2-1-2.7-1.9c-0.8-0.9-1.2-2.1-1.2-3.6c0-2,0.8-3.6,2.3-4.8
			c1.5-1.2,3.6-1.8,6.4-1.8C346.2,48.8,348.4,49.5,350.1,50.9z"/>
	</g>
</g>
</svg>
