<svg xmlns="http://www.w3.org/2000/svg" width="99.741" height="91.492" viewBox="0 0 99.741 91.492">
    <defs>
        <style>
            .prefix__cls-2{fill:#bedbfc}.prefix__cls-3{fill:#166ffe}.prefix__cls-4{fill:#fefefe}
        </style>
    </defs>
    <g id="prefix__Done-for-you_service" data-name="Done-for-you service" transform="translate(-738.338 -912)">
        <g id="prefix__Group_5097" data-name="Group 5097">
            <g id="prefix__Group_5096" data-name="Group 5096">
                <g id="prefix__Done-for-you_service-2" data-name="Done-for-you service">
                    <g id="prefix__Group_5095" data-name="Group 5095">
                        <g id="prefix__Group_5056" data-name="Group 5056" transform="translate(763.082 3004.256)">
                            <path id="prefix__Path_2553" fill="#e8e9ef" d="M-24.713-2031.959q-.012-28.111-.014-56.222c0-2.413 1.858-4.073 4.422-4.073H70.318c3.133 0 4.69 1.57 4.689 4.72l-.019 55.572a2.385 2.385 0 0 1-1.724.391q-13.853.014-27.706 0a3.233 3.233 0 0 1-1.642-.264c-.838-1.274-.586-2.76-.694-4.142-.547-6.983-.947-13.976-1.549-20.955-.093-1.078-.036-2.164-.165-3.238-.026-.7.468-1.071.932-1.466a5.557 5.557 0 0 0 1.859-6.078c-1.037-3.929-3.233-7.242-5.58-10.476-.368-.507-.66-.44-1 .014a31.531 31.531 0 0 0-5.48 10.1 5.75 5.75 0 0 0 1.793 6.465c.421.353.916.7.865 1.368-.149 4.7-.671 9.362-.952 14.045-.25 4.168-.628 8.327-.881 12.495-.039.635.082 1.308-.418 1.841a2.912 2.912 0 0 1-1.624.294q-5.345.014-10.69 0a2.818 2.818 0 0 1-1.739-.339 2.168 2.168 0 0 1-.368-1.476q-.016-17.42.006-34.839a4.764 4.764 0 0 1 .052-.642 3.641 3.641 0 0 0-.8-3.8 17.949 17.949 0 0 1-1.945-2.7c-.585-.953-1.307-1.809-1.961-2.714-.727-1.005-1.269-.994-2-.017-.645.858-1.283 1.723-1.845 2.641-1.07 1.753-2.622 3.216-3.149 5.294q.03 13.053.012 26.1c0 3.376.007 6.751-.005 10.127a3.193 3.193 0 0 1-.352 2.008 2.928 2.928 0 0 1-1.872.36q-13.611.012-27.223 0a2.58 2.58 0 0 1-1.856-.394z" data-name="Path 2553" transform="translate(-.01)"/>
                            <path id="prefix__Path_2554" d="M18.675-1861.991l14-.035a1.909 1.909 0 0 1 1.331-.369q4.239-.03 8.478 0a1.907 1.907 0 0 1 1.332.367l28.18.043c1 0 1.991.017 2.986.026.007 3.333.022 6.667.019 10a4.167 4.167 0 0 1-4.531 4.52q-18.506.006-37.013 0a2.432 2.432 0 0 1-1.721.417q-6.605.013-13.211 0a2.421 2.421 0 0 1-1.721-.417h-36.8c-3.16 0-4.751-1.609-4.748-4.8q0-4.859.021-9.718l30.909-.03a2.122 2.122 0 0 1 1.584-.413q4.656-.022 9.312 0a2.363 2.363 0 0 1 1.593.409z" class="prefix__cls-2" data-name="Path 2554" transform="translate(0 -170)"/>
                            <path id="prefix__Path_2555" d="M116.007-1766.212c2.724 0 5.449-.032 8.173.011 3.256.051 4.7 2.622 4.255 5.789-.1.734-.76.421-1.164.422-5.535.023-11.071.017-16.607.017-7.481 0-14.963-.025-22.445.023-1.093.007-1.364-.306-1.347-1.37.055-3.32 1.6-4.895 4.958-4.893h7.525a2.424 2.424 0 0 1 1.721-.417q6.6-.013 13.21 0a2.426 2.426 0 0 1 1.721.418z" class="prefix__cls-2" data-name="Path 2555" transform="translate(-82.556 -240.839)"/>
                            <path id="prefix__Path_2556" d="M151.471-1794.513H134.82v-10.387h16.652z" class="prefix__cls-3" data-name="Path 2556" transform="translate(-118.019 -212.538)"/>
                            <path id="prefix__Path_2557" d="M106.442-1970.595H93.953q0-18.651.019-37.3c0-.448-.2-.948.187-1.351a2.545 2.545 0 0 0 2.166.857c2.745-.033 5.491-.023 8.236 0 .629 0 1.3-.113 1.824.409l.045 26.613q.009 5.384.012 10.772z" class="prefix__cls-3" data-name="Path 2557" transform="translate(-87.768 -61.397)"/>
                            <path id="prefix__Path_2558" d="M206.914-1942.29h-11.141c.007-3.7.47-7.372.707-11.056.185-2.873.387-5.746.577-8.619.185-2.787.353-5.575.548-8.361.013-.187.19-.363.291-.544.038-.02.083-.064.114-.056a14.412 14.412 0 0 0 6.821 0c.555 1.622.277 3.329.481 4.992.365 2.979.366 6 .588 9 .3 4.107.682 8.209 1 12.315.064.771.013 1.552.014 2.329z" class="prefix__cls-4" data-name="Path 2558" transform="translate(-163.102 -89.739)"/>
                            <path id="prefix__Path_2559" d="M201.652-2024.07a7.862 7.862 0 0 1-6.935.059c-3.093-2.186-3.9-4.435-2.732-8.07a35.039 35.039 0 0 1 6.163-10.7c2.578 3.378 4.89 6.754 6.152 10.724 1.147 3.608.394 5.785-2.648 7.987z" class="prefix__cls-3" data-name="Path 2559" transform="translate(-159.924 -36.596)"/>
                            <path id="prefix__Path_2560" d="M106.966-2023.5c-3.664 0-7.329-.051-10.991.015-1.037.019-1.39-.3-1.235-1.277.617-1.944 2.015-3.393 3.169-5a11.158 11.158 0 0 1 6.179-.06 26.25 26.25 0 0 0 2.3 3.259c.65.93 1.278 1.873.578 3.063z" class="prefix__cls-4" data-name="Path 2560" transform="translate(-88.349 -45.878)"/>
                            <path id="prefix__Path_2561" d="M113.191-2038.735l-6.179.06a16.4 16.4 0 0 1 2-2.986c.623-.84 1.361-.815 2.021.019.751.942 1.442 1.936 2.158 2.907z" class="prefix__cls-3" data-name="Path 2561" transform="translate(-97.451 -36.964)"/>
                        </g>
                    </g>
                </g>
            </g>
        </g>
    </g>
</svg>
